# Blender v2.78 (sub 0) OBJ File: 'csonak.blend'
# www.blender.org
mtllib csonak.mtl
o Csonak_Cube.003
v -0.887060 -0.970394 1.762845
v 0.000000 -0.083333 -2.826895
v -0.887060 -1.005030 -1.899838
v 0.000000 -0.083333 2.115414
v 0.887060 -0.970394 1.762845
v 0.000000 -0.968263 1.850988
v 0.887060 -1.005030 -1.899838
v 0.000000 -1.072171 -2.395370
v -0.909315 -0.083333 1.762845
v -0.909315 -0.083333 -1.940716
v 0.909315 -0.083333 -1.940716
v 0.909315 -0.083333 1.762845
v -1.093167 -1.129444 0.000000
v 0.000000 -1.229620 -0.102745
v 1.093167 -1.129444 0.000000
v 1.303925 -0.083333 0.000000
v -1.303925 -0.083333 0.000000
v 0.000000 -0.525977 -2.885172
v -0.931986 -0.500000 -1.984390
v 0.000000 -0.500000 2.115414
v 0.931986 -0.500000 -1.984390
v 0.931986 -0.500000 1.850988
v -0.931986 -0.500000 1.850988
v 1.325225 -0.540295 0.000000
v -1.325225 -0.540295 0.000000
vn -0.9232 -0.3637 -0.1240
vn 0.5939 -0.5371 -0.5990
vn 0.9212 -0.3629 0.1404
vn -0.2398 -0.4774 0.8453
vn 0.0980 -0.9923 -0.0756
vn -0.4899 -0.1862 -0.8517
vn 0.0966 -0.1922 0.9766
vn -0.0980 -0.9923 -0.0756
vn -0.0108 -0.9911 0.1326
vn 0.0108 -0.9911 0.1326
vn 0.9735 -0.1193 -0.1953
vn -0.9691 -0.1317 0.2087
vn -0.9740 0.0963 0.2048
vn 0.9786 0.0734 -0.1924
vn 0.3533 0.2120 0.9112
vn -0.6935 0.1123 -0.7116
vn -0.2730 0.0000 0.9620
vn 0.9748 0.0454 0.2182
vn 0.6905 0.0944 -0.7171
vn -0.9789 0.0456 -0.1990
vn -0.9735 -0.1193 -0.1953
vn 0.4899 -0.1862 -0.8517
vn 0.9691 -0.1317 0.2087
vn -0.0966 -0.1922 0.9766
vn 0.1131 -0.9913 -0.0681
vn -0.5939 -0.5371 -0.5990
vn 0.2398 -0.4774 0.8453
vn -0.1131 -0.9913 -0.0681
vn -0.0816 -0.9917 0.0990
vn 0.0816 -0.9917 0.0990
vn 0.9232 -0.3637 -0.1240
vn -0.9212 -0.3629 0.1404
vn -0.9748 0.0454 0.2182
vn 0.9789 0.0456 -0.1990
vn 0.2730 0.0000 0.9620
vn -0.6905 0.0944 -0.7171
vn -0.3533 0.2120 0.9112
vn 0.9740 0.0963 0.2048
vn 0.6935 0.1123 -0.7116
vn -0.9786 0.0734 -0.1924
usemtl Material
s off
f 25//1 3//1 13//1
f 21//2 8//2 18//2
f 24//3 5//3 15//3
f 23//4 6//4 20//4
f 14//5 7//5 15//5
f 19//6 8//6 3//6
f 22//7 6//7 5//7
f 3//8 14//8 13//8
f 1//9 14//9 6//9
f 14//10 5//10 6//10
f 24//11 7//11 21//11
f 25//12 1//12 23//12
f 9//13 25//13 23//13
f 11//14 24//14 21//14
f 4//15 22//15 12//15
f 2//16 19//16 10//16
f 4//17 23//17 20//17
f 12//18 24//18 16//18
f 2//19 21//19 18//19
f 10//20 25//20 17//20
f 25//21 19//21 3//21
f 21//22 7//22 8//22
f 24//23 22//23 5//23
f 23//24 1//24 6//24
f 14//25 8//25 7//25
f 19//26 18//26 8//26
f 22//27 20//27 6//27
f 3//28 8//28 14//28
f 1//29 13//29 14//29
f 14//30 15//30 5//30
f 24//31 15//31 7//31
f 25//32 13//32 1//32
f 9//33 17//33 25//33
f 11//34 16//34 24//34
f 4//35 20//35 22//35
f 2//36 18//36 19//36
f 4//37 9//37 23//37
f 12//38 22//38 24//38
f 2//39 11//39 21//39
f 10//40 19//40 25//40
